<svg xmlns="http://www.w3.org/2000/svg" xmlns:xlink="http://www.w3.org/1999/xlink" width="500" zoomAndPan="magnify" viewBox="0 0 375 374.999991" height="500" preserveAspectRatio="xMidYMid meet" version="1.0"><defs><g/></defs><g fill="#B8860B" fill-opacity="1"><g transform="translate(156.735486, 186.322385)"><g><path d="M 17.96875 -32 L 24.140625 -32 L 24.171875 -9.828125 C 24.148438 -8.296875 23.859375 -6.90625 23.296875 -5.65625 C 22.734375 -4.40625 21.960938 -3.328125 20.984375 -2.421875 C 20.003906 -1.515625 18.847656 -0.8125 17.515625 -0.3125 C 16.191406 0.1875 14.769531 0.4375 13.25 0.4375 C 11.632812 0.4375 10.164062 0.234375 8.84375 -0.171875 C 7.53125 -0.585938 6.398438 -1.203125 5.453125 -2.015625 C 4.515625 -2.828125 3.78125 -3.847656 3.25 -5.078125 C 2.726562 -6.304688 2.457031 -7.75 2.4375 -9.40625 L 8.640625 -9.40625 C 8.648438 -7.6875 9.03125 -6.441406 9.78125 -5.671875 C 10.53125 -4.910156 11.6875 -4.53125 13.25 -4.53125 C 13.945312 -4.53125 14.585938 -4.664062 15.171875 -4.9375 C 15.765625 -5.207031 16.265625 -5.578125 16.671875 -6.046875 C 17.085938 -6.515625 17.40625 -7.070312 17.625 -7.71875 C 17.851562 -8.375 17.96875 -9.078125 17.96875 -9.828125 Z M 17.96875 -32 "/></g></g></g><g fill="#B8860B" fill-opacity="1"><g transform="translate(191.839878, 186.322385)"><g><path d="M 9.453125 -11.734375 L 9.453125 0 L 3.28125 0 L 3.28125 -32 L 14.21875 -32 C 15.957031 -32 17.53125 -31.742188 18.9375 -31.234375 C 20.34375 -30.722656 21.539062 -30.019531 22.53125 -29.125 C 23.519531 -28.226562 24.28125 -27.148438 24.8125 -25.890625 C 25.351562 -24.628906 25.625 -23.226562 25.625 -21.6875 C 25.625 -20.25 25.351562 -18.921875 24.8125 -17.703125 C 24.28125 -16.492188 23.519531 -15.445312 22.53125 -14.5625 C 21.539062 -13.675781 20.34375 -12.984375 18.9375 -12.484375 C 17.53125 -11.984375 15.957031 -11.734375 14.21875 -11.734375 Z M 9.453125 -16.75 L 14.21875 -16.75 C 15.09375 -16.75 15.851562 -16.878906 16.5 -17.140625 C 17.144531 -17.398438 17.679688 -17.753906 18.109375 -18.203125 C 18.546875 -18.660156 18.867188 -19.1875 19.078125 -19.78125 C 19.296875 -20.375 19.40625 -20.992188 19.40625 -21.640625 C 19.40625 -22.390625 19.296875 -23.085938 19.078125 -23.734375 C 18.867188 -24.378906 18.546875 -24.941406 18.109375 -25.421875 C 17.679688 -25.898438 17.144531 -26.28125 16.5 -26.5625 C 15.851562 -26.84375 15.09375 -26.984375 14.21875 -26.984375 L 9.453125 -26.984375 Z M 9.453125 -16.75 "/></g></g></g><g fill="#B8860B" fill-opacity="1"><g transform="translate(116.813331, 218.914526)"><g><path d="M 5.34375 -3.671875 L 6.03125 -9.25 L 7.65625 -9.25 L 6.375 0 L 4.765625 0 L 3.890625 -5.453125 L 3.046875 0 L 1.4375 0 L 0.171875 -9.25 L 1.796875 -9.25 L 2.453125 -3.71875 L 3.25 -9.25 L 4.515625 -9.25 Z M 5.34375 -3.671875 "/></g></g></g><g fill="#B8860B" fill-opacity="1"><g transform="translate(127.992275, 218.914526)"><g><path d="M 6.515625 -4.046875 L 2.71875 -4.046875 L 2.71875 -1.4375 L 7.15625 -1.4375 L 7.15625 0 L 0.9375 0 L 0.9375 -9.25 L 7.140625 -9.25 L 7.140625 -7.78125 L 2.71875 -7.78125 L 2.71875 -5.453125 L 6.515625 -5.453125 Z M 6.515625 -4.046875 "/></g></g></g><g fill="#B8860B" fill-opacity="1"><g transform="translate(139.171218, 218.914526)"><g><path d="M 0.8125 0 L 0.8125 -9.25 L 3.921875 -9.25 C 4.421875 -9.25 4.878906 -9.195312 5.296875 -9.09375 C 5.710938 -8.988281 6.066406 -8.832031 6.359375 -8.625 C 6.648438 -8.414062 6.875 -8.148438 7.03125 -7.828125 C 7.1875 -7.515625 7.265625 -7.144531 7.265625 -6.71875 C 7.265625 -6.28125 7.148438 -5.890625 6.921875 -5.546875 C 6.691406 -5.210938 6.359375 -4.957031 5.921875 -4.78125 C 6.191406 -4.707031 6.421875 -4.601562 6.609375 -4.46875 C 6.804688 -4.332031 6.96875 -4.171875 7.09375 -3.984375 C 7.226562 -3.804688 7.328125 -3.609375 7.390625 -3.390625 C 7.453125 -3.171875 7.484375 -2.941406 7.484375 -2.703125 C 7.484375 -2.265625 7.40625 -1.875 7.25 -1.53125 C 7.09375 -1.195312 6.875 -0.914062 6.59375 -0.6875 C 6.3125 -0.457031 5.96875 -0.285156 5.5625 -0.171875 C 5.15625 -0.0546875 4.695312 0 4.1875 0 Z M 2.609375 -4.078125 L 2.609375 -1.4375 L 4.203125 -1.4375 C 4.679688 -1.445312 5.046875 -1.566406 5.296875 -1.796875 C 5.554688 -2.035156 5.6875 -2.34375 5.6875 -2.71875 C 5.695312 -3.144531 5.582031 -3.472656 5.34375 -3.703125 C 5.113281 -3.941406 4.753906 -4.066406 4.265625 -4.078125 Z M 2.609375 -5.359375 L 3.9375 -5.359375 C 4.425781 -5.367188 4.804688 -5.472656 5.078125 -5.671875 C 5.347656 -5.878906 5.484375 -6.175781 5.484375 -6.5625 C 5.484375 -7 5.347656 -7.3125 5.078125 -7.5 C 4.816406 -7.6875 4.429688 -7.78125 3.921875 -7.78125 L 2.609375 -7.78125 Z M 2.609375 -5.359375 "/></g></g></g><g fill="#B8860B" fill-opacity="1"><g transform="translate(150.350163, 218.914526)"><g/></g></g><g fill="#B8860B" fill-opacity="1"><g transform="translate(161.529106, 218.914526)"><g><path d="M 0.796875 0 L 0.796875 -9.25 L 3.1875 -9.25 C 3.800781 -9.25 4.351562 -9.140625 4.84375 -8.921875 C 5.34375 -8.710938 5.769531 -8.421875 6.125 -8.046875 C 6.476562 -7.671875 6.75 -7.222656 6.9375 -6.703125 C 7.132812 -6.179688 7.234375 -5.613281 7.234375 -5 L 7.234375 -4.234375 C 7.234375 -3.609375 7.132812 -3.035156 6.9375 -2.515625 C 6.75 -2.003906 6.484375 -1.5625 6.140625 -1.1875 C 5.796875 -0.8125 5.378906 -0.519531 4.890625 -0.3125 C 4.398438 -0.101562 3.863281 0 3.28125 0 Z M 2.59375 -7.796875 L 2.59375 -1.4375 L 3.28125 -1.4375 C 3.613281 -1.4375 3.910156 -1.5 4.171875 -1.625 C 4.441406 -1.75 4.664062 -1.929688 4.84375 -2.171875 C 5.03125 -2.421875 5.171875 -2.71875 5.265625 -3.0625 C 5.367188 -3.40625 5.421875 -3.796875 5.421875 -4.234375 L 5.421875 -5.015625 C 5.421875 -5.421875 5.367188 -5.796875 5.265625 -6.140625 C 5.171875 -6.484375 5.03125 -6.773438 4.84375 -7.015625 C 4.65625 -7.265625 4.421875 -7.457031 4.140625 -7.59375 C 3.867188 -7.726562 3.550781 -7.796875 3.1875 -7.796875 Z M 2.59375 -7.796875 "/></g></g></g><g fill="#B8860B" fill-opacity="1"><g transform="translate(172.708051, 218.914526)"><g><path d="M 6.515625 -4.046875 L 2.71875 -4.046875 L 2.71875 -1.4375 L 7.15625 -1.4375 L 7.15625 0 L 0.9375 0 L 0.9375 -9.25 L 7.140625 -9.25 L 7.140625 -7.78125 L 2.71875 -7.78125 L 2.71875 -5.453125 L 6.515625 -5.453125 Z M 6.515625 -4.046875 "/></g></g></g><g fill="#B8860B" fill-opacity="1"><g transform="translate(183.886994, 218.914526)"><g><path d="M 3.890625 -2.578125 L 5.640625 -9.25 L 7.609375 -9.25 L 4.8125 0 L 2.984375 0 L 0.203125 -9.25 L 2.171875 -9.25 Z M 3.890625 -2.578125 "/></g></g></g><g fill="#B8860B" fill-opacity="1"><g transform="translate(195.065937, 218.914526)"><g><path d="M 6.515625 -4.046875 L 2.71875 -4.046875 L 2.71875 -1.4375 L 7.15625 -1.4375 L 7.15625 0 L 0.9375 0 L 0.9375 -9.25 L 7.140625 -9.25 L 7.140625 -7.78125 L 2.71875 -7.78125 L 2.71875 -5.453125 L 6.515625 -5.453125 Z M 6.515625 -4.046875 "/></g></g></g><g fill="#B8860B" fill-opacity="1"><g transform="translate(206.24488, 218.914526)"><g><path d="M 2.75 -1.4375 L 7.078125 -1.4375 L 7.078125 0 L 0.953125 0 L 0.953125 -9.25 L 2.75 -9.25 Z M 2.75 -1.4375 "/></g></g></g><g fill="#B8860B" fill-opacity="1"><g transform="translate(217.423829, 218.914526)"><g><path d="M 7.28125 -3.9375 C 7.28125 -3.34375 7.203125 -2.796875 7.046875 -2.296875 C 6.890625 -1.804688 6.660156 -1.378906 6.359375 -1.015625 C 6.066406 -0.648438 5.707031 -0.367188 5.28125 -0.171875 C 4.851562 0.0234375 4.375 0.125 3.84375 0.125 C 3.3125 0.125 2.835938 0.0234375 2.421875 -0.171875 C 2.003906 -0.367188 1.65625 -0.648438 1.375 -1.015625 C 1.09375 -1.378906 0.878906 -1.804688 0.734375 -2.296875 C 0.585938 -2.796875 0.515625 -3.34375 0.515625 -3.9375 L 0.515625 -5.28125 C 0.515625 -5.875 0.585938 -6.421875 0.734375 -6.921875 C 0.878906 -7.421875 1.09375 -7.851562 1.375 -8.21875 C 1.65625 -8.582031 2.003906 -8.863281 2.421875 -9.0625 C 2.835938 -9.269531 3.3125 -9.375 3.84375 -9.375 C 4.375 -9.375 4.851562 -9.269531 5.28125 -9.0625 C 5.707031 -8.863281 6.066406 -8.582031 6.359375 -8.21875 C 6.660156 -7.851562 6.890625 -7.421875 7.046875 -6.921875 C 7.203125 -6.421875 7.28125 -5.875 7.28125 -5.28125 Z M 5.46875 -5.296875 C 5.46875 -5.671875 5.4375 -6.015625 5.375 -6.328125 C 5.3125 -6.648438 5.210938 -6.925781 5.078125 -7.15625 C 4.953125 -7.382812 4.785156 -7.5625 4.578125 -7.6875 C 4.378906 -7.820312 4.132812 -7.890625 3.84375 -7.890625 C 3.550781 -7.890625 3.304688 -7.820312 3.109375 -7.6875 C 2.921875 -7.5625 2.765625 -7.382812 2.640625 -7.15625 C 2.523438 -6.925781 2.441406 -6.648438 2.390625 -6.328125 C 2.335938 -6.015625 2.3125 -5.671875 2.3125 -5.296875 L 2.3125 -3.9375 C 2.3125 -3.570312 2.335938 -3.226562 2.390625 -2.90625 C 2.441406 -2.59375 2.523438 -2.316406 2.640625 -2.078125 C 2.765625 -1.847656 2.921875 -1.664062 3.109375 -1.53125 C 3.304688 -1.40625 3.550781 -1.34375 3.84375 -1.34375 C 4.132812 -1.34375 4.378906 -1.40625 4.578125 -1.53125 C 4.785156 -1.664062 4.953125 -1.847656 5.078125 -2.078125 C 5.210938 -2.304688 5.3125 -2.578125 5.375 -2.890625 C 5.4375 -3.210938 5.46875 -3.5625 5.46875 -3.9375 Z M 5.46875 -5.296875 "/></g></g></g><g fill="#B8860B" fill-opacity="1"><g transform="translate(228.602772, 218.914526)"><g><path d="M 2.734375 -3.390625 L 2.734375 0 L 0.953125 0 L 0.953125 -9.25 L 4.109375 -9.25 C 4.609375 -9.25 5.0625 -9.171875 5.46875 -9.015625 C 5.875 -8.867188 6.21875 -8.664062 6.5 -8.40625 C 6.789062 -8.15625 7.015625 -7.847656 7.171875 -7.484375 C 7.328125 -7.117188 7.40625 -6.710938 7.40625 -6.265625 C 7.40625 -5.847656 7.328125 -5.460938 7.171875 -5.109375 C 7.015625 -4.765625 6.789062 -4.460938 6.5 -4.203125 C 6.21875 -3.953125 5.875 -3.753906 5.46875 -3.609375 C 5.0625 -3.460938 4.609375 -3.390625 4.109375 -3.390625 Z M 2.734375 -4.84375 L 4.109375 -4.84375 C 4.359375 -4.84375 4.578125 -4.878906 4.765625 -4.953125 C 4.953125 -5.023438 5.109375 -5.125 5.234375 -5.25 C 5.359375 -5.382812 5.453125 -5.535156 5.515625 -5.703125 C 5.578125 -5.878906 5.609375 -6.0625 5.609375 -6.25 C 5.609375 -6.46875 5.578125 -6.671875 5.515625 -6.859375 C 5.453125 -7.046875 5.359375 -7.207031 5.234375 -7.34375 C 5.109375 -7.476562 4.953125 -7.585938 4.765625 -7.671875 C 4.578125 -7.753906 4.359375 -7.796875 4.109375 -7.796875 L 2.734375 -7.796875 Z M 2.734375 -4.84375 "/></g></g></g><g fill="#B8860B" fill-opacity="1"><g transform="translate(239.781715, 218.914526)"><g><path d="M 6.515625 -4.046875 L 2.71875 -4.046875 L 2.71875 -1.4375 L 7.15625 -1.4375 L 7.15625 0 L 0.9375 0 L 0.9375 -9.25 L 7.140625 -9.25 L 7.140625 -7.78125 L 2.71875 -7.78125 L 2.71875 -5.453125 L 6.515625 -5.453125 Z M 6.515625 -4.046875 "/></g></g></g><g fill="#B8860B" fill-opacity="1"><g transform="translate(250.960657, 218.914526)"><g><path d="M 3.96875 -3.453125 L 2.609375 -3.453125 L 2.609375 0 L 0.828125 0 L 0.828125 -9.25 L 3.921875 -9.25 C 4.441406 -9.25 4.90625 -9.1875 5.3125 -9.0625 C 5.726562 -8.9375 6.082031 -8.757812 6.375 -8.53125 C 6.675781 -8.300781 6.90625 -8.007812 7.0625 -7.65625 C 7.21875 -7.3125 7.296875 -6.910156 7.296875 -6.453125 C 7.296875 -6.117188 7.253906 -5.820312 7.171875 -5.5625 C 7.097656 -5.300781 6.988281 -5.0625 6.84375 -4.84375 C 6.695312 -4.632812 6.519531 -4.453125 6.3125 -4.296875 C 6.113281 -4.140625 5.882812 -4.003906 5.625 -3.890625 L 7.625 -0.078125 L 7.625 0 L 5.703125 0 Z M 2.609375 -4.90625 L 3.9375 -4.90625 C 4.4375 -4.90625 4.820312 -5.03125 5.09375 -5.28125 C 5.375 -5.539062 5.515625 -5.890625 5.515625 -6.328125 C 5.515625 -6.796875 5.378906 -7.15625 5.109375 -7.40625 C 4.835938 -7.664062 4.441406 -7.796875 3.921875 -7.796875 L 2.609375 -7.796875 Z M 2.609375 -4.90625 "/></g></g></g></svg>